<?xml version="1.0" encoding="utf-8"?>
<!-- Generator: Adobe Illustrator 18.1.1, SVG Export Plug-In . SVG Version: 6.00 Build 0)  -->
<svg version="1.1" id="Layer_1" xmlns="http://www.w3.org/2000/svg" xmlns:xlink="http://www.w3.org/1999/xlink" x="0px" y="0px"
	 viewBox="0 0 160 160" enable-background="new 0 0 160 160" xml:space="preserve">
<g id="raster">
	<path fill="#424242" d="M55.3,56.2c-1.3,0.9-1.9,2.1-1.9,3.9c0,1.5,0.4,2.5,1.2,3c0.8,0.6,2,0.8,3.5,0.8c1,0,2.2-0.3,3.8-1
		c1.5-0.6,3.3-1.6,4.3-2.7v-6.2l-4,0.4C58.9,54.7,56.6,55.3,55.3,56.2z"/>
	<path fill="#424242" d="M80.5,5c-41.4,0-75,33.6-75,75c0,41.4,33.6,75,75,75s75-33.6,75-75C155.5,38.6,121.9,5,80.5,5z M64.4,41.5
		c-1.2-0.7-2.8-1.1-5.1-1.1c-1.9,0-3.5,0.3-4.9,0.9c-1.3,0.6-2.3,1.5-2.9,2.6l-0.3,0.5l-7.9-5.1l0.2-0.4c1.3-2.2,3.3-3.9,6.1-5
		c2.7-1.1,6-1.7,9.8-1.7c5.8,0,10.1,1,12.7,3.1c2.7,2.1,3.9,5.5,3.9,10.3V71h-9v-3.1c-4,2.9-7.2,4.3-11.1,4.3
		c-4.2,0-7.5-1.1-9.7-3.4c-2.2-2.2-3.3-5.1-3.3-8.6c0-2.7,0.6-5,1.7-6.8c1.1-1.8,2.8-3.2,4.9-4.2c2.1-1,5.2-1.7,9.2-2.1l7.2-0.7
		v-1.2C66,43.4,65.5,42.2,64.4,41.5z M76.6,121.2c-2.7,3.7-6.5,5.5-11.4,5.5c-1.9,0-4.1-0.4-6.3-1.3c-2-0.8-3.6-1.6-4.9-2.7
		l-1.1,3.3H45V77h10v13.1c3-2.3,6.8-3.5,10.6-3.5c5.1,0,8.9,1.8,11.3,5.3c2.3,3.5,3.6,8.3,3.6,14.4
		C80.5,112.6,79.2,117.6,76.6,121.2z M115,94.9L96.1,117H115v9H84v-7.7L102.5,96H84v-8h31V94.9z M115,71h-10v-3.9
		c-2,1.4-3.3,2.5-5.3,3.4c-2.4,1.1-4.8,1.7-7,1.7c-4.3,0-7.4-1.2-9.1-3.7c-1.7-2.4-2.5-5.8-2.5-10.2V33h10v21.1
		c0,2.6,0.2,4.5,0.5,5.9c0.3,1.3,0.7,2.1,1.3,2.6c0.6,0.5,1.6,0.7,2.8,0.7c2.5,0,5.4-1.7,9.4-5V33h10V71z"/>
	<path fill="#424242" d="M63.1,95.6c-1.4,0-2.9,0.3-4.3,1C57.4,97.2,56,98,55,98.9v15.7c1,0.8,2.2,1.5,3.5,2.1c1.4,0.6,2.8,1,4.1,1
		c2.5,0,4.3-0.9,5.6-2.8c1.3-1.9,2-4.7,2-8.4c0-3.7-0.6-6.5-1.7-8.3C67.3,96.5,65.6,95.6,63.1,95.6z"/>
</g>
</svg>
